<?xml version="1.0" encoding="utf-8"?>
<svg width="937px" height="266px" viewBox="0 0 937 266" version="1.1" xmlns:xlink="http://www.w3.org/1999/xlink" xmlns="http://www.w3.org/2000/svg">
  <defs>
    <path d="M0 0L937 0L937 266L0 266L0 0Z" id="path_1" />
    <clipPath id="mask_1">
      <use xlink:href="#path_1" />
    </clipPath>
  </defs>
  <g id="brush-stroke">
    <path d="M0 0L937 0L937 266L0 266L0 0Z" id="Background" fill="none" fill-rule="evenodd" stroke="none" />
    <g clip-path="url(#mask_1)">
      <path d="M244.193 249.798C244.193 249.07 243.967 248.613 243.691 248.784C243.415 248.955 242.844 248.27 242.423 247.262C241.979 246.199 241.294 245.429 240.791 245.429C240.107 245.429 240.052 245.277 240.528 244.703C240.991 244.146 240.975 243.925 240.462 243.752C239.936 243.575 239.959 243.326 240.57 242.583C241.161 241.863 241.192 241.586 240.699 241.42C240.343 241.301 240.052 240.975 240.052 240.698C240.052 240.42 240.282 240.335 240.564 240.509C240.857 240.69 240.944 240.482 240.767 240.022C240.598 239.58 240.725 239.219 241.05 239.219C241.481 239.219 241.491 238.938 241.087 238.183C240.642 237.352 240.693 237.148 241.348 237.148C242.007 237.148 242.039 237.015 241.515 236.454C240.845 235.737 239.543 236.378 239.713 237.342C239.757 237.591 239.52 237.896 239.187 238.019C238.788 238.166 238.683 237.85 238.88 237.097C239.045 236.467 238.968 236.075 238.71 236.226C238.452 236.377 237.775 236.33 237.205 236.12C236.384 235.818 236.626 235.662 238.37 235.363C239.742 235.129 240.57 234.712 240.57 234.256C240.57 233.854 241.022 233.525 241.575 233.525C242.129 233.525 242.9 233.07 243.289 232.514C243.987 231.518 246.624 230.157 247.478 230.353C247.72 230.408 249.234 230.121 250.842 229.715C252.451 229.309 255.224 228.813 257.004 228.612C258.783 228.412 260.369 228.038 260.528 227.781C260.686 227.524 261.326 227.309 261.95 227.303C262.574 227.296 264.482 226.603 266.19 225.762C267.898 224.92 269.689 224.227 270.17 224.22C270.652 224.214 271.189 223.976 271.365 223.691C271.541 223.407 271.422 223.174 271.101 223.174C270.384 223.174 270.642 220.859 271.365 220.809C271.65 220.789 272.904 220.48 274.152 220.123C275.4 219.766 276.99 219.616 277.684 219.79C278.379 219.965 279.687 219.879 280.591 219.6C281.495 219.322 283.534 218.839 285.123 218.528C289.482 217.675 291.81 216.962 291.81 216.481C291.81 215.982 265.258 216.33 258.685 216.915C255.221 217.224 253.9 217.139 252.474 216.519C251.478 216.086 250.546 215.698 250.404 215.657C250.261 215.616 249.464 215.301 248.632 214.957C247.8 214.614 246.752 214.476 246.303 214.65C245.854 214.825 238.965 215.052 230.994 215.154C223.024 215.256 215.454 215.572 214.173 215.855C212.892 216.139 209.053 216.641 205.642 216.972C202.231 217.302 198.995 217.811 198.45 218.103C197.905 218.394 196.322 218.523 194.932 218.39C193.542 218.256 192.278 218.35 192.125 218.598C191.971 218.847 191.629 218.916 191.364 218.752C191.099 218.588 190.882 218.701 190.882 219.002C190.882 219.304 190.708 219.504 190.494 219.448C189.633 219.22 185.189 220.162 185.189 220.572C185.189 221.077 181.279 221.917 179.801 221.729C179.257 221.66 178.375 222.073 177.84 222.647C177.305 223.221 176.469 223.719 175.982 223.752C175.495 223.786 173.699 223.864 171.991 223.925C170.283 223.986 167.954 224.306 166.815 224.634C165.676 224.963 163.865 225.363 162.789 225.523C161.714 225.683 160.96 226.018 161.115 226.268C161.597 227.047 160.446 227.252 151.454 227.983C150.976 228.022 150.627 228.274 150.678 228.544C150.729 228.813 150.304 229.171 149.735 229.339C149.166 229.506 148.112 230.043 147.393 230.532C146.453 231.172 144.493 231.515 140.406 231.754C137.281 231.937 134.187 232.063 133.529 232.033C132.871 232.003 131.617 232.349 130.743 232.801C129.84 233.268 129.015 233.418 128.834 233.148C128.388 232.486 126.566 231.85 126.965 232.496C127.386 233.177 126.882 233.142 125.504 232.395C122.723 230.887 109.555 232.033 108.182 233.902C107.756 234.481 107.71 234.871 108.052 234.986C108.347 235.084 108.588 235.37 108.588 235.622C108.588 235.874 108.262 235.956 107.864 235.803C107.465 235.65 106.986 235.774 106.798 236.078C106.296 236.89 109.398 236.772 111.072 235.915C111.841 235.522 113.518 235.029 114.799 234.819C116.08 234.61 117.535 234.363 118.033 234.27C118.532 234.178 118.939 234.407 118.939 234.78C118.939 235.26 119.583 235.408 121.139 235.286C122.839 235.153 123.13 235.234 122.422 235.645C121.918 235.937 121.622 236.365 121.764 236.596C122.071 237.093 119.178 237.593 113.575 238.01C110.43 238.245 109.403 238.152 109.055 237.602C108.727 237.085 108.601 237.067 108.596 237.536C108.584 238.489 105.473 238.335 104.358 237.327C103.838 236.856 103.412 236.691 103.412 236.96C103.412 237.257 101.732 237.31 99.1419 237.094C96.7934 236.898 93.1251 236.61 90.9901 236.453C88.8551 236.296 86.3432 235.897 85.4081 235.566C84.4731 235.235 83.1283 235.075 82.4197 235.21C81.7112 235.346 80.9845 235.219 80.805 234.929C80.6043 234.604 80.7397 234.562 81.1561 234.819C81.5776 235.08 81.708 235.035 81.5012 234.7C81.1115 234.069 78.643 233.498 75.7216 233.363C73.9983 233.283 73.6419 233.08 73.5951 232.154C73.5448 231.16 73.9018 231 76.9593 230.646C78.8406 230.428 80.962 230.3 81.6737 230.361L82.9676 230.473L81.5943 229.727C79.2129 228.432 76.8907 227.886 72.3573 227.554C69.9377 227.377 66.444 226.851 64.5937 226.387C60.3379 225.317 45.571 225.235 44.9269 226.277C44.7053 226.636 44.25 226.76 43.9151 226.553C43.0504 226.019 33.5257 225.839 33.8497 226.363C34.1527 226.853 34.0756 226.862 27.3049 227.067C22.5261 227.212 20.509 227.389 13.3537 228.29C10.091 228.701 8.18339 228.466 6.31863 227.422C5.53769 226.985 5.706 226.737 7.58672 225.549C9.10366 224.592 10.9569 224.028 13.7542 223.675C18.5279 223.071 23.0826 222.311 26.3642 221.57C28.327 221.127 28.7185 220.853 28.5129 220.066C28.3652 219.502 27.9618 219.22 27.536 219.383C27.1371 219.536 26.8106 219.404 26.8106 219.088C26.8106 218.773 27.2182 218.512 27.7164 218.508C28.4905 218.501 28.5093 218.427 27.8458 217.998C27.3548 217.681 27.3013 217.493 27.7002 217.488C28.048 217.484 28.1968 217.131 28.0319 216.701C27.8238 216.159 28.3402 215.652 29.7303 215.034L31.7276 214.147L26.6706 213.835C23.8892 213.663 20.2209 213.546 18.5188 213.575C16.8166 213.604 15.424 213.598 15.424 213.563C15.424 213.527 15.8898 212.961 16.4591 212.305C17.0285 211.648 17.4943 211.268 17.4943 211.461C17.4943 211.653 18.0188 211.467 18.6598 211.047C19.3008 210.627 21.552 210.016 23.6623 209.688C25.7726 209.361 28.4217 208.767 29.5491 208.37C30.6766 207.972 32.4431 207.638 33.4748 207.628C36.3572 207.6 43.6179 205.712 41.5185 205.536C41.2575 205.515 40.5782 205.39 40.0088 205.259C39.4395 205.128 38.6893 204.958 38.3417 204.882C37.1575 204.622 37.0819 204.119 38.175 203.772C38.775 203.581 39.8746 202.861 40.6187 202.172C41.3627 201.482 42.4913 200.918 43.1265 200.918C43.7617 200.918 44.5472 200.598 44.872 200.206C45.3572 199.622 44.9305 199.434 42.4769 199.155C40.8348 198.968 38.7925 198.702 37.9385 198.564C35.9068 198.236 27.8221 198.284 27.2669 198.627C26.5177 199.09 20.5997 199.308 20.5997 198.873C20.5997 198.644 20.9491 198.167 21.3761 197.812C21.8031 197.458 22.1525 196.925 22.1525 196.628C22.1525 196.33 21.9992 196.24 21.8119 196.428C21.6246 196.615 21.1588 196.509 20.7768 196.192C20.3922 195.873 20.0822 195.836 20.0822 196.11C20.0822 196.382 19.7328 196.605 19.3058 196.605C18.0628 196.605 18.4038 196.051 20.1119 195.294C22.0328 194.444 21.7578 194.087 18.6609 193.413C15.8359 192.798 15.2974 191.834 17.3228 191.017C19.419 190.172 29.2671 189.076 34.8968 189.06C37.5356 189.053 40.3125 188.892 41.0676 188.703L42.4407 188.358L40.966 187.152C40.1549 186.488 39.0974 185.937 38.6161 185.927C37.3892 185.901 37.0163 185.078 37.6744 183.848C38.3693 182.55 42.8714 180.215 44.6804 180.215C45.443 180.215 45.884 179.991 45.7022 179.697C45.5262 179.413 44.9551 179.18 44.4331 179.18C43.5562 179.18 42.5812 177.888 42.7733 176.98C42.9686 176.057 34.7567 177.089 34.0695 178.074C33.5446 178.825 20.328 180.79 19.0287 180.309L17.7914 179.852L18.995 179.208C19.6569 178.853 23.9571 177.937 28.551 177.171C36.9571 175.77 39.003 174.78 33.4947 174.78C31.8022 174.78 30.2451 174.485 29.7389 174.067C29.0199 173.474 28.0245 173.458 23.8312 173.97C16.1208 174.911 11.6397 175.558 10.5888 175.881C9.89259 176.095 9.68321 175.942 9.81246 175.312C10.0008 174.395 11.6021 173.319 14.1125 172.422C16.2733 171.651 14.9302 170.97 12.1673 171.437C10.9695 171.639 8.94133 171.969 7.66034 172.17L5.33124 172.534L7.27215 170.674C8.33965 169.651 9.21307 168.731 9.21307 168.629C9.21307 168.527 7.76878 168.281 6.00356 168.081C1.82989 167.609 -0.403326 166.439 -0.374416 164.74C-0.359227 163.843 2.98911 162.641 6.10467 162.413C7.38729 162.319 10.3 161.872 12.5773 161.42C14.8546 160.968 18.3486 160.493 20.3416 160.365C22.3346 160.237 25.3624 159.887 27.0701 159.587C37.6755 157.725 40.0625 157.266 40.5196 157.004C40.8005 156.843 39.9853 156.457 38.7081 156.146C37.4227 155.833 36.3858 155.277 36.3858 154.901C36.3858 154.03 41.6024 152.138 46.3369 151.292C48.64 150.88 50.344 150.268 50.9019 149.651C51.4013 149.1 53.1339 148.404 54.8481 148.066C58.7373 147.301 58.6323 146.575 54.4064 145.014C53.5004 144.679 52.864 144.136 52.9923 143.807C53.2843 143.057 55.6833 141.914 56.9638 141.914C57.4932 141.914 57.7824 141.681 57.6064 141.397C57.4305 141.112 55.5535 140.879 53.4353 140.879C49.9453 140.879 48.5439 140.35 50.231 139.669C51.7385 139.061 44.185 139.39 40.4542 140.095C35.8082 140.973 33.2803 140.606 33.2803 139.052C33.2803 138.336 34.6323 137.395 38.3607 135.518C41.8729 133.749 43.2308 132.824 42.7601 132.52C41.8659 131.942 42.7484 131.352 46.2198 130.206C51.1196 128.587 55.0066 125.874 54.4963 124.429C54.1477 123.442 56.0575 122.904 63.9475 121.765C67.8694 121.199 71.797 120.377 72.6755 119.939C73.554 119.501 75.414 119.005 76.8087 118.838C80.6546 118.377 88.0133 116.516 89.1643 115.712C89.7258 115.321 90.8904 114.984 91.7522 114.964C92.6141 114.944 93.785 114.727 94.3543 114.483C95.1786 114.128 94.9677 114.022 93.3192 113.961C88.9076 113.799 86.5666 113.364 85.9817 112.598C85.5825 112.075 84.9587 111.915 84.1702 112.131C83.1354 112.416 83.0953 112.382 83.8828 111.888C84.3861 111.573 85.2013 111.382 85.6943 111.463C86.1873 111.544 86.904 111.414 87.287 111.174C87.699 110.916 88.5046 111.016 89.2599 111.421C90.2547 111.953 90.7525 111.969 91.5156 111.492C92.1352 111.105 92.6099 111.067 92.8081 111.388C92.9805 111.667 94.447 111.903 96.067 111.913C97.687 111.923 99.5948 112.264 100.306 112.671C101.857 113.557 102.377 113.622 102.377 112.93C102.377 112.645 102.014 112.412 101.57 112.412C101.126 112.412 100.891 112.206 101.046 111.954C101.202 111.701 100.842 111.367 100.246 111.211C99.65 111.055 99.2634 110.621 99.3871 110.247C99.6154 109.555 101.934 109.15 109.105 108.549C115.584 108.005 117.386 107.713 117.386 107.205C117.386 106.938 117.037 106.719 116.61 106.719C116.179 106.719 115.834 106.259 115.834 105.684C115.834 104.925 116.179 104.649 117.128 104.649C118.617 104.649 118.87 103.852 117.496 103.492C116.987 103.359 114.367 103.375 111.673 103.526C103.829 103.969 100.691 103.822 99.0496 102.934C98.216 102.483 97.3848 102.206 97.2024 102.319C97.02 102.431 96.9669 101.868 97.0846 101.067C97.3412 99.318 96.6132 99.0453 91.299 98.8991C88.1184 98.8115 87.8715 98.733 88.9769 98.1601C90.7953 97.2177 97.4657 95.8652 101.443 95.6323C103.476 95.5133 105.397 95.0883 106.087 94.6045C107.558 93.5746 108.444 93.5617 109.438 94.5558C109.885 95.003 111.131 95.3275 112.377 95.321C116.213 95.3012 130.526 93.8456 132.469 93.2776C134.284 92.7472 134.339 92.6616 133.956 90.964C133.715 89.8943 133.769 88.9906 134.094 88.6656C134.463 88.2965 134.447 87.9102 134.043 87.4229C132.806 85.933 134.379 85.6246 141.933 85.8757C147.801 86.0708 149.632 85.9639 150.823 85.3566C152.083 84.7141 157.764 83.8278 161.639 83.6691C162.209 83.6459 163.839 83.4185 165.262 83.164L167.85 82.7013L165.521 82.3249C164.24 82.1178 160.397 82.0671 156.981 82.2123C153.565 82.3575 148.674 82.4453 146.112 82.4074C143.55 82.3695 138.542 82.7179 134.984 83.1816C127.943 84.099 120.682 84.7408 117.557 84.7219C116.467 84.7154 115.429 84.9134 115.25 85.162C115.071 85.4105 114.198 85.6437 113.309 85.68C112.42 85.7164 111.693 85.9389 111.693 86.1746C111.693 86.4103 111.169 86.4557 110.529 86.2755C109.617 86.0191 109.533 86.066 110.14 86.4915C110.81 86.9601 110.792 87.0362 110.011 87.043C109.513 87.0477 109.105 87.3106 109.105 87.628C109.105 87.9824 108.613 87.8826 107.829 87.3692C106.413 86.4409 105.791 86.2951 106.222 86.992C106.378 87.2443 106.043 87.5719 105.476 87.7199C104.887 87.874 104.447 87.7332 104.447 87.3906C104.447 87.0441 103.63 86.7921 102.506 86.7921C101.272 86.7921 100.609 87.0188 100.686 87.4143C100.77 87.8426 100.212 87.9603 98.8974 87.792C96.7427 87.5161 94.6171 86.3102 94.6052 85.3568C94.5996 84.9493 94.4175 85 94.0955 85.4982C93.7061 86.1007 93.592 85.9483 93.5859 84.8171C93.5758 82.9504 94.4285 81.3576 95.4382 81.3576C95.872 81.3576 96.083 81.1246 95.907 80.84C95.7311 80.5553 96.0085 80.3046 96.5235 80.2828C98.229 80.2106 99.3123 79.897 100.466 79.1414C101.5 78.4639 103.929 78.7247 103.929 79.5131C103.929 79.6557 103.617 79.6526 103.236 79.5056C102.855 79.3593 102.214 79.6442 101.813 80.1388C101.184 80.9138 101.184 80.9769 101.818 80.595C102.384 80.2543 102.469 80.3711 102.189 81.1012C101.971 81.6691 102.092 82.2199 102.489 82.4722C103.479 83.1005 104.313 82.9823 103.412 82.3413C102.828 81.9255 103.128 81.8573 104.624 82.0655C105.723 82.2186 107.035 82.0782 107.558 81.7513C108.274 81.304 108.688 81.3133 109.262 81.7895C109.873 82.2968 110.098 82.2406 110.421 81.4996C110.642 80.9941 110.786 80.4059 110.741 80.1924C110.696 79.9789 110.988 79.8042 111.392 79.8042C111.795 79.8042 112.214 79.5378 112.322 79.2123C112.431 78.8867 113.203 78.5475 114.038 78.4584C114.873 78.3694 115.817 77.9406 116.135 77.5057C116.453 77.0707 116.902 76.8859 117.132 77.095C117.363 77.304 117.406 77.0675 117.227 76.5694C116.827 75.4544 117.817 75.3501 118.244 76.4623C118.515 77.1692 118.662 77.16 119.521 76.3821C120.439 75.5517 120.493 75.5576 120.5 76.4891C120.507 77.3152 120.59 77.3492 121.01 76.6987C121.758 75.5414 121.651 75.2893 120.266 74.9416C119.387 74.7211 119.029 74.2941 119.086 73.5352C119.178 72.3263 120.98 71.4227 123.058 71.5447C124.994 71.6585 126.703 70.9924 126.703 70.1241C126.703 69.5652 127.218 69.4012 128.644 69.5053C130.73 69.6576 134.24 69.075 135.502 68.3669C136.129 68.0152 136.079 67.9237 135.243 67.8912C134.674 67.8692 133.044 67.7418 131.62 67.6083C127.219 67.1957 121.365 67.2087 119.253 67.6358C117.803 67.9289 117.339 67.8796 117.598 67.4601C117.821 67.0998 117.681 66.9834 117.232 67.1557C116.806 67.319 116.119 66.8453 115.573 66.0116C114.906 64.9939 114.818 64.5295 115.265 64.3806C115.684 64.2408 115.583 63.9321 114.956 63.4404C114.105 62.7732 114.16 62.7323 115.576 62.9782C116.429 63.1266 116.837 63.1108 116.481 62.943C115.17 62.3251 115.892 61.6891 117.904 61.6891C119.211 61.6891 119.978 61.9277 119.983 62.3361C119.988 62.8121 120.108 62.7975 120.436 62.2808C120.715 61.8396 121.002 61.7744 121.206 62.1053C121.554 62.6675 122.212 62.6238 123.83 61.9313C124.385 61.6938 125.604 61.4839 126.54 61.4649C128.685 61.4214 129.382 60.1364 127.26 60.1364C126.421 60.1364 125.65 59.7999 125.481 59.36C125.28 58.8362 125.506 58.5837 126.176 58.5837C126.722 58.5837 127.356 58.2925 127.583 57.9367C128.177 57.0089 130.286 55.9099 130.829 56.2455C131.083 56.4021 131.436 56.2937 131.615 56.0042C131.794 55.7149 132.583 55.4782 133.368 55.4782C134.154 55.4782 136.062 55.0999 137.608 54.6377C140.048 53.9079 140.268 53.7403 139.271 53.3664C138.639 53.1295 134.317 52.9672 129.667 53.0058C125.016 53.0447 120.907 52.888 120.535 52.6581C120.15 52.42 119.707 52.4868 119.505 52.8131C119.089 53.486 103 53.9962 102.6 53.3491C102.459 53.1216 101.983 53.0742 101.541 53.2437C100.997 53.4525 100.925 53.6679 101.319 53.9112C101.639 54.1088 101.192 54.2705 100.327 54.2705C99.462 54.2705 98.7541 54.0479 98.7541 53.7758C98.7541 53.5037 98.3991 53.5758 97.9652 53.9358C97.5314 54.2959 97.0108 54.425 96.8084 54.2226C96.6061 54.0202 97.0193 53.4141 97.7267 52.8756L99.0129 51.8965L97.719 52.1452C96.5851 52.3632 96.5531 52.3331 97.4602 51.9021C98.9529 51.193 101.406 51.2663 102.844 52.0632C104.246 52.8399 106 52.584 106 51.6029C106 51.1509 107.022 50.9479 109.364 50.9347C111.475 50.9228 112.729 51.1275 112.729 51.4843C112.729 51.7971 113.02 51.6714 113.376 51.2049C113.843 50.5923 115.244 50.2645 118.422 50.0246C120.842 49.8419 124.292 49.3638 126.088 48.9622C127.885 48.5607 130.098 48.2097 131.005 48.1824C131.913 48.1549 133.82 47.8147 135.243 47.426C137.67 46.7633 137.396 46.7369 130.844 47.0016C127.001 47.1569 123.507 47.2878 123.08 47.2925C122.653 47.2972 117.296 47.847 111.176 48.5142C105.056 49.1815 98.3831 49.7986 96.3481 49.8855C94.3131 49.9725 92.7547 50.2183 92.885 50.4317C93.0153 50.6452 92.1183 50.8209 90.8916 50.822C89.665 50.822 86.5652 51.1616 84.0032 51.5739C79.6099 52.2811 69.2754 53.0103 70.6789 52.5141C71.0365 52.3877 71.1974 52.0712 71.0365 51.8109C70.8756 51.5506 71.3982 51.3264 72.1978 51.3127C72.9975 51.2994 74.4669 50.8459 75.4632 50.3057C76.4596 49.7655 77.7405 49.1063 78.3099 48.8409C80.1812 47.9683 110.707 42.9182 117.904 42.2906C120.039 42.1045 126.212 41.4907 131.62 40.9269C137.029 40.363 144.168 39.6757 147.484 39.3995C150.801 39.1232 154.635 38.5599 156.005 38.1477C157.804 37.6062 158.594 37.5584 158.852 37.9757C159.179 38.5046 164.624 38.3598 171.215 37.6469C172.211 37.5391 175.355 37.3054 178.202 37.1276C183.31 36.8084 191.092 35.7348 195.448 34.7483C196.678 34.4698 197.903 34.3766 198.169 34.5413C198.436 34.706 202.042 34.3274 206.183 33.7002C212.309 32.772 213.932 32.6776 214.896 33.1935C215.865 33.7122 217.106 33.6251 221.726 32.7148C229.416 31.1992 239.451 29.229 244.452 28.2528C246.729 27.8083 250.038 27.1142 251.804 26.7105C253.571 26.3067 255.783 25.9775 256.721 25.9789C257.659 25.9789 259.475 25.6461 260.756 25.2361C262.914 24.5452 267.335 23.7782 279.129 22.0479C285.189 21.1589 286.41 20.9537 292.586 19.7861C295.433 19.248 300.091 18.4234 302.938 17.9535C305.785 17.4837 308.812 16.9837 309.666 16.8426C315.71 15.8438 316.861 15.8624 318.063 16.9781C318.711 17.5801 319.242 18.337 319.242 18.6602C319.242 18.9834 319.416 19.2203 319.63 19.1866C319.843 19.1532 320.55 19.1532 321.201 19.1866C322.19 19.2377 322.299 19.4062 321.866 20.2149C321.232 21.3989 321.739 22.0375 322.688 21.2503C323.755 20.3646 323.512 21.1612 322.284 22.5733C321.64 23.314 320.346 23.9781 319.156 24.1792C317.418 24.4729 317.22 24.6347 317.776 25.3053C318.612 26.3117 317.906 26.3741 351.073 22.361C353.35 22.0855 357.426 21.7483 360.13 21.6118C362.834 21.4753 367.726 21.1184 370.999 20.8188C374.273 20.5192 378.582 20.1818 380.574 20.069C382.567 19.9562 385.118 19.6227 386.244 19.3277C387.37 19.0328 391.836 18.7772 396.168 18.7597C400.501 18.7423 404.354 18.6241 404.732 18.4972C405.663 18.1841 417.792 17.5488 420.678 17.6619C421.954 17.712 423.354 18.0751 423.789 18.4691C424.765 19.3518 427.249 19.4403 438.802 19.0039C444.112 18.8032 448.989 18.347 450.591 17.9011C452.68 17.3192 456.146 17.1599 465.341 17.2231C471.952 17.2689 482.951 17.13 489.783 16.9153C503.628 16.48 502.888 16.475 517.214 17.0969C526.49 17.4996 531.841 17.5163 539.988 17.1681C541.411 17.1072 542.168 16.951 541.67 16.8207C541.172 16.6906 540.764 16.3406 540.764 16.0431C540.764 15.6861 542.217 15.6046 545.034 15.8035C547.383 15.9694 554.428 16.3411 560.691 16.6295C566.954 16.9181 574.989 17.393 578.547 17.6851C592.843 18.8583 598.295 19.2718 605.72 19.7458C624.289 20.9313 634.078 21.4036 644.279 21.6066C648.976 21.7 654.799 21.9352 657.219 22.1291C659.638 22.3231 663.249 22.4608 665.241 22.4353C667.234 22.4102 671.193 22.6179 674.04 22.8979C676.887 23.1779 686.106 23.5096 694.527 23.635C702.949 23.7604 710.868 24.0899 712.125 24.3674C713.382 24.6449 716.241 24.998 718.477 25.1522C720.714 25.3064 723.276 25.5523 724.171 25.6988C727.231 26.1995 732.009 26.54 738.996 26.7552C745.149 26.9446 751.127 27.3994 759.958 28.3499C761.381 28.503 763.361 28.6934 764.357 28.7728C765.353 28.8523 767.915 29.0667 770.05 29.2495C772.185 29.4322 775.795 29.7242 778.072 29.8983C780.349 30.0724 782.329 30.2867 782.472 30.3744C782.614 30.4621 784.056 30.6745 785.674 30.8467C787.293 31.0188 788.959 31.2905 789.376 31.4505C789.793 31.6105 792.195 31.8108 794.714 31.8956C801.632 32.1285 801.623 32.127 801.623 32.9636C801.623 33.3906 801.869 33.74 802.171 33.74C802.472 33.74 802.55 33.4675 802.345 33.1345C802.089 32.7216 802.258 32.6393 802.874 32.8757C803.371 33.0665 804.291 33.2225 804.919 33.2225C805.689 33.2225 806.086 33.5589 806.138 34.2576C806.232 35.4949 805.951 35.5543 804.913 34.5164C803.829 33.433 802.618 33.5143 802.982 34.6458C803.161 35.2031 803.105 35.3291 802.836 34.9732C802.538 34.579 801.08 34.505 798.258 34.7408C793.401 35.1469 789.735 35.0351 782.99 34.2755C780.286 33.971 776.792 33.5966 775.226 33.4435C773.66 33.2904 772.108 33.0764 771.775 32.9677C771.443 32.8591 771.036 33.1235 770.87 33.5552C770.647 34.1365 770.155 34.2493 768.975 33.99C767.121 33.5828 765.93 33.428 760.993 32.9528C759 32.761 757.23 32.5184 757.06 32.4137C756.697 32.1906 749.775 32.154 740.29 32.3249C734.272 32.4333 730.029 32.1371 726.863 31.3874C725.079 30.9651 712.599 30.7823 712.599 31.1786C712.599 31.3824 714.172 31.7174 716.093 31.9231C718.015 32.1288 720.053 32.3889 720.622 32.5012C724.616 33.2889 735.311 34.1718 743.913 34.4237C745.906 34.4821 747.782 34.6875 748.083 34.8803C748.584 35.2008 764.432 36.4366 765.283 36.2215C765.485 36.1702 767.398 36.2913 769.533 36.4904C772.834 36.7983 781.263 37.4178 783.378 37.5081C784.143 37.5406 784.233 38.2087 783.531 38.6424C783.027 38.9537 779.126 39.0256 775.595 38.7886C774.517 38.7162 773.446 38.3505 773.214 37.9758C772.901 37.469 772.012 37.3843 769.74 37.6452C768.06 37.8381 766.53 38.0886 766.34 38.2018C766.149 38.3151 765.64 38.0545 765.208 37.6227C764.776 37.1909 764.3 37.037 764.149 37.2808C763.857 37.7538 753.41 37.5523 750.383 37.0153C749.386 36.8386 747.63 36.646 746.48 36.5873C745.33 36.5286 743.874 36.2051 743.245 35.8684C742.331 35.379 742.101 35.3949 742.101 35.9474C742.101 36.3542 741.409 36.6944 740.419 36.7743C736.327 37.1045 730.598 37.0732 726.056 36.6958C722.79 36.4244 721.395 36.4583 721.901 36.7971C723.941 38.1631 720.113 38.8369 714.152 38.1609C708.868 37.5616 707.923 37.5301 705.639 37.8767C704.46 38.0555 702.808 38.0173 701.966 37.7918C699.75 37.1979 688.228 36.1461 683.098 36.0694C680.678 36.0332 677.184 35.8443 675.334 35.6496C673.484 35.4551 669.757 35.1763 667.053 35.0302C664.348 34.884 657.943 34.4221 652.819 34.0035C647.695 33.585 640.074 33.086 635.883 32.8948C629.053 32.5831 628.228 32.6364 627.932 33.4089C627.65 34.1437 626.75 34.2676 621.836 34.2488C618.666 34.2369 615.023 34.4157 613.742 34.6466L611.413 35.0665L615.295 35.6436C617.43 35.961 619.992 36.2144 620.988 36.2065C621.985 36.1981 626.061 36.553 630.046 36.9938C634.031 37.4346 641.601 38.0554 646.867 38.3732C652.134 38.6909 656.961 39.0624 657.594 39.1987C658.227 39.335 663.467 39.6732 669.239 39.9503C679.612 40.4484 686.881 40.8549 692.414 41.2463C693.98 41.3571 699.351 41.6836 704.35 41.9719C709.349 42.2602 713.774 42.5998 714.183 42.7266C714.593 42.8534 715.394 43.1332 715.964 43.3485C716.533 43.5638 717.894 43.8045 718.989 43.8836C720.083 43.9628 721.248 44.3967 721.578 44.848C722.055 45.4997 723.403 45.6962 728.129 45.8024C731.401 45.876 734.312 46.0795 734.596 46.2545C734.881 46.4295 736.861 46.7094 738.996 46.8764C749.202 47.675 759.405 48.3236 764.098 48.4722C766.945 48.5624 773.001 49.0429 777.555 49.54C782.11 50.0371 787.933 50.5211 790.495 50.6156C808.227 51.2695 822.389 52.0931 829.83 52.903C832.392 53.1819 836.883 53.5598 839.81 53.7429C842.736 53.926 845.254 54.2749 845.404 54.5182C845.555 54.7616 844.907 54.9796 843.965 55.0027C843.023 55.0261 841.595 55.0925 840.791 55.1509C839.987 55.2092 839.229 55.0931 839.105 54.8929C838.981 54.6926 838.019 54.7664 836.967 55.0568C835.9 55.3516 833.558 55.4339 831.666 55.2432C829.803 55.0552 819.893 54.8103 809.645 54.6988C799.397 54.5874 787.169 54.3459 782.472 54.1621C774.1 53.8345 771.728 54.0349 777.22 54.6057C778.743 54.7641 780.102 55.0063 780.24 55.144C780.609 55.5132 778.717 56.4264 777.147 56.6366C775.317 56.8816 774.74 57.5373 776.304 57.5935C776.992 57.6182 780.583 57.8554 784.284 58.1207C787.984 58.3861 795.263 58.7407 800.458 58.909C808.998 59.1854 809.904 59.3017 809.904 60.1219C809.904 61.2603 811.987 61.5295 824.545 62.0135C829.608 62.2087 833.873 62.5649 834.021 62.8051C834.169 63.0453 835.312 63.2419 836.559 63.2419C840.811 63.2419 839.619 64.6711 834.396 65.8354C832.922 66.164 830.942 66.3901 829.997 66.3377C823.693 65.9884 825.346 67.0074 832.418 67.8302C835.265 68.1615 839.224 68.5453 841.217 68.6831C843.21 68.821 846.82 69.166 849.24 69.4497C851.659 69.7335 856.55 70.1192 860.109 70.3069C864.491 70.5381 866.745 70.8671 867.096 71.3264C867.383 71.7022 869.229 72.1549 871.236 72.3417C873.229 72.527 875.092 72.963 875.377 73.3106C875.662 73.6582 877.596 74.0997 879.675 74.2917C881.754 74.4838 883.977 74.983 884.615 75.4011C885.346 75.8802 887.585 76.2455 890.669 76.389C897.319 76.6985 902.529 77.2817 902.818 77.749C903.122 78.2401 898.59 78.9416 897.893 78.5113C897.608 78.3349 897.374 78.4113 897.374 78.681C897.374 78.9508 898.189 79.3245 899.186 79.5114C901.153 79.8804 901.525 80.5243 900.091 81.0799C898.4 81.7355 900.767 82.774 906.088 83.7108C910.557 84.4977 913.381 85.4703 911.323 85.5134C909.388 85.554 912.375 86.4663 915.484 86.7845C917.331 86.9734 919.112 87.3526 919.443 87.6272C919.773 87.9018 921.517 88.3637 923.318 88.6536C928.32 89.4592 928.266 90.1065 923.163 90.5076C921.256 90.6575 919.513 91.1014 918.989 91.5707C918.253 92.229 917.354 92.3078 914.072 92.0013C907.398 91.378 906.077 91.4993 905.075 92.8272C904.585 93.477 904.284 94.1717 904.407 94.3708C904.531 94.5699 906.201 94.8958 908.119 95.0951C910.038 95.2943 911.84 95.6402 912.125 95.8636C912.41 96.0871 913.749 96.4346 915.101 96.6359C918.812 97.1883 918.05 97.9195 913.764 97.9195C911.677 97.9195 909.792 98.0942 909.577 98.3077C909.361 98.5212 907.19 98.6959 904.753 98.6959C901.67 98.6959 900.252 98.8929 900.098 99.3429C899.946 99.7862 900.5 99.9907 901.86 99.9927C902.951 99.9936 904.659 100.209 905.656 100.47C906.652 100.731 909.439 101.093 911.848 101.273C914.258 101.453 916.492 101.818 916.813 102.084C917.134 102.351 917.532 102.433 917.698 102.267C917.864 102.101 918.541 102.159 919.203 102.396C920.132 102.728 919.581 102.901 916.783 103.155C913.482 103.456 909.717 104.211 907.726 104.972C906.462 105.456 908.427 105.987 914.325 106.756C917.243 107.136 919.63 107.585 919.63 107.754C919.63 107.923 921.144 107.965 922.994 107.847C925.698 107.675 926.359 107.781 926.359 108.389C926.359 109.327 924.72 110.862 923.73 110.851C923.121 110.844 923.128 110.756 923.77 110.341C924.431 109.914 924.409 109.838 923.625 109.832C923.117 109.827 922.564 110.185 922.394 110.627C922.132 111.311 921.196 111.39 916.07 111.16C909.647 110.871 908.069 111.213 909.252 112.639C911.234 115.027 919.316 117.587 924.871 117.587C928.228 117.587 929.981 118.215 929.981 119.417C929.981 120.019 929.153 120.173 925.97 120.163C923.764 120.156 921.027 119.905 919.888 119.605C918.75 119.306 913.385 118.955 907.966 118.826C898.384 118.598 898.112 118.62 898.036 119.632C897.961 120.627 898.592 121.344 899.703 121.524C899.988 121.57 902.22 121.984 904.665 122.445C912.665 123.952 919.768 124.871 927.038 125.337C933.773 125.77 936.07 126.362 935.374 127.488C935.215 127.746 934.863 127.818 934.591 127.65C934.319 127.482 934.16 127.653 934.238 128.03C934.317 128.409 933.978 128.684 933.48 128.644C932.985 128.605 932.692 128.754 932.829 128.976C932.966 129.197 932.287 129.527 931.321 129.708C929.232 130.1 928.737 131.033 929.806 132.56C930.377 133.374 930.437 133.859 930.031 134.349C929.364 135.153 929.799 135.703 931.103 135.703C931.625 135.703 932.052 135.8 932.052 135.919C932.052 136.038 932.206 136.538 932.395 137.031C932.711 137.853 932.363 137.898 928.125 137.583C925.588 137.394 922.638 137.101 921.571 136.932C920.026 136.687 919.63 136.789 919.63 137.432C919.63 137.876 919.254 138.449 918.795 138.706C917.611 139.369 918.322 142.351 919.808 142.951C920.87 143.379 920.874 143.404 919.889 143.47C918.853 143.539 918.853 143.539 919.889 143.984C920.898 144.418 919.488 144.603 914.195 144.732C911.988 144.786 910.313 145.483 910.313 146.348C910.313 146.81 909.777 147.092 908.89 147.096C908.107 147.101 906.937 147.245 906.29 147.419C905.187 147.714 905.171 147.777 906.031 148.43C906.536 148.813 907.586 149.134 908.365 149.143C909.144 149.153 911.318 149.975 913.196 150.971C915.09 151.976 917.364 152.783 918.303 152.783C921.44 152.783 926.332 153.442 926.091 153.832C925.959 154.044 926.248 154.187 926.732 154.148C927.216 154.109 927.696 154.478 927.797 154.969C928.033 156.107 924.977 158.071 923.4 157.793C922.77 157.682 922.169 157.845 922.066 158.156C921.822 158.888 915.781 159.095 913.365 158.454C912.339 158.182 907.04 157.896 901.59 157.819C892.376 157.688 889.659 157.953 893.104 158.644C893.887 158.801 895.575 159.167 896.856 159.457C898.137 159.747 900.175 159.994 901.385 160.006C902.595 160.019 903.585 160.262 903.585 160.546C903.585 160.831 903.95 161.064 904.395 161.064C904.841 161.064 905.684 161.32 906.268 161.633C907.319 162.195 907.317 162.208 906.105 162.812C903.981 163.871 904.639 164.87 908.208 166.004C910.038 166.586 911.646 167.401 911.779 167.816C911.912 168.23 912.227 168.704 912.479 168.869C913.27 169.388 912.323 170.985 911.427 170.641C910.974 170.468 910.747 170.468 910.921 170.643C911.096 170.818 910.652 171.548 909.934 172.265C908.99 173.209 908.017 173.594 906.414 173.656C905.196 173.703 904.293 173.894 904.408 174.08C904.523 174.266 902.389 174.304 899.664 174.165C895.704 173.962 894.537 174.069 893.843 174.696C892.879 175.567 887.796 175.926 885.144 175.31C884.132 175.075 883.393 175.148 883.173 175.504C882.979 175.817 882.271 176.074 881.6 176.074C880.042 176.074 878.741 176.57 878.741 177.164C878.741 177.419 879.079 177.627 879.492 177.627C879.905 177.627 880.44 177.98 880.682 178.411C880.954 178.898 882.977 179.557 886.013 180.148C891.992 181.311 896.395 183.09 895.978 184.175C895.818 184.591 895.356 184.805 894.951 184.65C894.546 184.494 894.345 184.578 894.504 184.835C894.663 185.092 894.182 186.028 893.436 186.915C892.437 188.102 891.805 188.441 891.039 188.197C890.462 188.014 890.128 188.077 890.29 188.339C890.45 188.598 889.771 188.833 888.781 188.861C887.791 188.889 885.346 189.313 883.348 189.802L879.715 190.693L880.871 191.923C881.507 192.6 882.242 193.154 882.506 193.154C882.769 193.154 883.783 193.533 884.76 193.997C886.464 194.805 886.504 194.889 885.75 196.04C885.255 196.796 885.156 197.359 885.484 197.562C885.77 197.739 885.855 198.125 885.672 198.421C885.458 198.767 885.18 198.709 884.887 198.256C884.594 197.8 884.298 197.739 884.046 198.081C883.833 198.372 882.959 198.946 882.105 199.358L880.553 200.107L882.191 200.283C883.964 200.474 884.913 201.802 883.627 202.295C883.193 202.462 882.708 202.469 882.551 202.312C882.394 202.155 881.49 202.461 880.542 202.994C879.595 203.526 877.934 204.127 876.852 204.33C875.77 204.533 874.572 205.013 874.188 205.396C873.28 206.304 872.925 206.284 868.116 205.054C863.8 203.95 862.583 204.053 860.812 205.672C859.813 206.585 859.41 206.63 856.706 206.13C853.159 205.474 846.476 205.39 846.857 206.006C847.003 206.243 848.822 206.726 850.898 207.081C856.189 207.983 856.784 208.176 855.916 208.713C854.41 209.644 861.153 211.841 867.744 212.567C869.523 212.763 871.092 213.106 871.23 213.329C871.368 213.553 870.993 214.356 870.396 215.115C869.393 216.39 869.374 216.565 870.144 217.417C870.602 217.923 870.978 218.465 870.978 218.621C870.978 219.261 862.213 218.34 859.332 217.398C855.189 216.043 846.8 215.054 846.025 215.829C845.615 216.239 845.611 216.591 846.012 217.074C846.553 217.726 847.383 218.005 854.286 219.855C856.438 220.432 857.521 220.983 857.521 221.501C857.521 222.157 856.91 222.226 853.68 221.933C851.22 221.71 849.721 221.777 849.509 222.12C849.327 222.415 849.463 222.656 849.813 222.656C850.161 222.656 850.326 222.776 850.179 222.924C849.832 223.271 842.502 221.732 841.773 221.16C841.2 220.709 833.642 219.545 832.03 219.659C831.532 219.694 831.124 220.014 831.124 220.371C831.124 220.727 831.004 221.332 830.856 221.716C830.602 222.379 836.923 223.719 847.815 225.312C849.451 225.551 851.634 226.099 852.666 226.53C853.697 226.961 855.27 227.315 856.16 227.317C858.504 227.321 861.871 228.346 861.327 228.89C861.075 229.142 857.923 229.414 854.323 229.495C850.722 229.577 847.815 229.683 847.862 229.731C847.91 229.779 849.099 230.271 850.506 230.823C852.956 231.786 853.014 231.854 851.895 232.453C851.018 232.923 850.081 232.941 848.146 232.525C844.996 231.85 844.581 231.841 844.581 232.448C844.581 232.711 845.277 233.078 846.128 233.265C848.957 233.886 848.344 234.56 844.95 234.56C842.974 234.56 840.977 234.888 840.006 235.372C839.024 235.862 837.923 236.04 837.232 235.821C835.756 235.353 811.455 235.174 811.739 235.634C812.341 236.608 805.551 236.603 799.758 235.624C788.025 233.644 778.042 232.518 771.603 232.449C768.045 232.411 762.688 232.06 759.699 231.669C756.71 231.277 751.385 230.717 747.866 230.424C744.346 230.13 741.318 229.801 741.137 229.691C740.956 229.582 739.06 229.343 736.925 229.162C734.79 228.98 732.228 228.733 731.232 228.612C729.158 228.362 719.715 227.835 712.858 227.588C707.898 227.409 700.361 226.933 695.26 226.476C693.552 226.323 686.915 226.099 680.509 225.977C674.105 225.856 666.535 225.566 663.688 225.332C660.842 225.099 652.969 224.931 646.193 224.96C635.946 225.002 633.791 225.14 633.383 225.774C632.967 226.421 632.822 226.427 632.427 225.815C632.117 225.334 631.451 225.195 630.432 225.399C629.589 225.567 628.649 225.45 628.336 225.138C628.025 224.826 627.001 224.522 626.061 224.462C625.121 224.402 623.887 224.215 623.317 224.047C620.216 223.128 616.984 222.861 615.682 223.416C614.637 223.861 612.028 223.335 612.389 222.752C612.521 222.537 610.027 222.298 606.846 222.222C598.279 222.016 597.391 221.922 596.421 221.117C595.633 220.463 595.554 220.493 595.71 221.389C595.829 222.072 595.636 222.337 595.109 222.212C594.682 222.111 593.809 222.024 593.169 222.018C592.528 222.013 592.004 221.829 592.004 221.611C592.004 221.392 591.629 221.069 591.17 220.893C590.564 220.661 590.421 220.795 590.647 221.382C590.86 221.94 590.758 222.065 590.316 221.784C589.963 221.56 587.462 221.303 584.758 221.214C579.071 221.026 579.916 221.028 553.186 221.123C541.941 221.162 531.302 221.027 529.542 220.821C527.781 220.615 525.95 220.598 525.471 220.781C524.59 221.119 507.682 221.787 502.488 221.688C498.425 221.612 493.818 224 496.38 224.854C496.763 224.981 496.498 225.348 495.734 225.751C495.023 226.126 494.312 226.63 494.154 226.87C493.582 227.738 489.188 228.223 487.94 227.555C487.153 227.134 485.069 226.983 481.792 227.109C479.065 227.214 470.109 227.423 461.889 227.573C453.669 227.723 446.378 227.988 445.686 228.161C444.995 228.335 442.057 228.512 439.157 228.556C436.257 228.6 433.419 228.897 432.849 229.217C431.831 229.79 427.031 230.729 426.227 230.514C425.237 230.248 423.398 230.315 421.722 230.677C420.725 230.893 419.444 231.03 418.875 230.983C418.306 230.935 417.374 230.855 416.805 230.805C416.235 230.754 413.557 230.987 410.852 231.321C408.148 231.655 404.929 231.924 403.698 231.918C402.467 231.913 401.186 232.128 400.851 232.397C400.516 232.667 399.485 233.049 398.56 233.247C397.183 233.541 396.878 233.447 396.878 232.73C396.878 231.954 396.45 231.896 393.125 232.221C391.062 232.422 385.646 232.641 381.092 232.706C376.537 232.772 371.556 233.099 370.023 233.434C368.489 233.768 367.122 234.042 366.983 234.042C366.845 234.042 367.022 234.391 367.376 234.818C367.73 235.245 368.807 235.594 369.769 235.594C370.73 235.594 371.517 235.692 371.517 235.811C371.517 235.93 371.658 236.396 371.831 236.846C372.262 237.969 370.804 237.914 369.654 236.763C369.003 236.112 368.694 236.041 368.538 236.508C368.42 236.863 368.11 237.022 367.849 236.861C367.589 236.7 367.376 236.757 367.376 236.987C367.376 237.218 366.852 237.435 366.212 237.469C365.571 237.504 362.019 237.796 358.319 238.119C354.618 238.441 347.165 238.798 341.756 238.912C336.347 239.026 331.34 239.247 330.628 239.403C328.217 239.932 314.959 241.158 307.855 241.509C294.691 242.161 284.71 244.043 282.652 246.264C282.009 246.958 280.874 247.519 280.06 247.546C273.362 247.763 264.061 248.461 259.979 249.052C258.271 249.299 255.275 249.644 253.321 249.819C251.367 249.993 248.598 250.358 247.168 250.629C245.739 250.9 244.485 251.122 244.381 251.122C244.278 251.122 244.193 250.526 244.193 249.797L244.193 249.798ZM244.193 245.089C244.193 244.523 243.964 244.481 243.177 244.901C242.57 245.226 242.282 245.76 242.461 246.227C242.692 246.829 242.925 246.872 243.477 246.414C243.871 246.087 244.193 245.491 244.193 245.089L244.193 245.089ZM331.405 237.391C333.43 236.665 333.379 236.654 329.076 236.906C319.222 237.484 316.136 237.777 316.136 238.134C316.136 238.809 329.227 238.172 331.405 237.391L331.405 237.391ZM90.9901 231.18C90.9901 231.046 90.6408 230.937 90.2138 230.937C89.7867 230.937 89.4374 231.206 89.4374 231.535C89.4374 231.864 89.7867 231.973 90.2138 231.778C90.6408 231.582 90.9901 231.313 90.9901 231.18L90.9901 231.18ZM128.514 229.385C128.695 229.092 128.271 228.867 127.54 228.867C126.829 228.867 126.102 229.1 125.926 229.385C125.746 229.677 126.17 229.902 126.9 229.902C127.612 229.902 128.338 229.669 128.514 229.385L128.514 229.385ZM103.93 226.736C103.93 226.202 103.31 226.152 102.16 226.593C100.862 227.092 101.21 227.713 102.636 227.441C103.347 227.305 103.93 226.988 103.93 226.736L103.93 226.736ZM396.793 226.652C398.559 226.16 398.802 225.971 397.931 225.765C396.55 225.438 380.083 226.129 371.258 226.885C368.86 227.091 387.38 227.592 391.185 227.425C393.035 227.344 395.559 226.996 396.793 226.652L396.793 226.652ZM414.734 225.059C415.303 224.924 414.255 224.833 412.405 224.856C407.989 224.912 406.24 225.387 409.041 225.771C410.179 225.927 411.693 225.886 412.405 225.679C413.117 225.473 414.165 225.193 414.734 225.059L414.734 225.059ZM84.4334 225.211C85.4992 225.18 85.4922 225.153 84.2955 224.675C82.8843 224.111 81.6738 224.392 81.6738 225.283C81.6738 225.608 82.0414 225.731 82.4925 225.558C82.9428 225.385 83.8162 225.229 84.4334 225.211L84.4334 225.211ZM422.51 224.637C422.648 224.495 421.727 224.339 420.462 224.29C419.198 224.241 418.002 224.468 417.806 224.794C417.554 225.211 418.163 225.314 419.853 225.141C421.176 225.006 422.371 224.779 422.51 224.637L422.51 224.637ZM827.241 218.538C827.439 218.202 826.614 218.02 825.073 218.059C822.864 218.116 822.759 218.17 824.137 218.538C826.401 219.142 826.885 219.142 827.241 218.538L827.241 218.538ZM29.4955 211.042C29.1219 210.706 28.6755 210.747 28.5035 211.134C28.3315 211.521 28.6372 211.797 29.1828 211.746C29.7858 211.69 29.9084 211.414 29.4955 211.043L29.4955 211.042ZM35.6094 210.276C36.6496 209.911 36.7003 209.818 35.8682 209.805C35.2989 209.796 34.3672 210.008 33.7979 210.276C32.479 210.897 33.8397 210.897 35.6094 210.276L35.6094 210.276ZM42.5544 210.437C43.0046 210.265 43.3731 209.704 43.3731 209.193C43.3731 208.4 43.0475 208.303 41.1734 208.537C38.7951 208.835 37.2431 209.716 39.0984 209.716C39.7079 209.716 40.3505 209.949 40.5264 210.234C40.8946 210.83 41.3999 210.88 42.5544 210.437L42.5544 210.437ZM883.401 201.436C883.401 201.151 882.993 200.922 882.494 200.926C881.72 200.932 881.701 201.007 882.365 201.436C883.342 202.067 883.401 202.067 883.401 201.436L883.401 201.436ZM55.3744 180.505C55.0008 180.169 54.5543 180.21 54.3824 180.597C54.2104 180.985 54.5161 181.26 55.0617 181.209C55.6646 181.153 55.7873 180.877 55.3744 180.505L55.3744 180.505ZM51.1367 178.869C51.1367 178.025 49.6972 177.93 47.8062 178.649C45.7475 179.432 46.236 179.983 48.8076 179.778C50.3701 179.654 51.1367 179.355 51.1367 178.869L51.1367 178.869ZM60.7505 179.242C60.2337 178.406 58.3828 178.193 58.3828 178.969C58.3828 179.405 58.9142 179.697 59.7073 179.697C60.4358 179.697 60.9052 179.492 60.7505 179.242L60.7505 179.242ZM56.83 178.662C57.4075 178.289 57.1092 178.158 55.6654 178.153C54.598 178.148 53.7245 178.378 53.7245 178.662C53.7245 179.322 55.8099 179.322 56.83 178.662L56.83 178.662ZM919.63 118.106C919.63 117.821 919.397 117.588 919.113 117.588C918.828 117.588 918.595 117.821 918.595 118.106C918.595 118.39 918.828 118.623 919.113 118.623C919.397 118.623 919.63 118.39 919.63 118.106L919.63 118.106ZM923.383 108.613C923.027 108.247 922.445 108.247 922.089 108.613C921.733 108.978 922.024 109.276 922.736 109.276C923.447 109.276 923.739 108.978 923.383 108.613L923.383 108.613ZM915.619 102.394C914.979 102.029 913.931 102.029 913.29 102.394C912.65 102.76 913.174 103.058 914.455 103.058C915.736 103.058 916.26 102.76 915.619 102.394L915.619 102.394ZM891.683 98.0348C891.683 97.8132 889.761 97.3557 887.412 97.0181C885.064 96.6805 882.581 96.2428 881.896 96.0455C881.122 95.8227 880.77 95.8808 880.967 96.1988C881.141 96.4804 883.332 97.0072 885.836 97.3693C888.34 97.7315 890.622 98.1016 890.907 98.1919C891.191 98.2822 891.483 98.3743 891.554 98.3968C891.625 98.4192 891.683 98.2563 891.683 98.0347L891.683 98.0348ZM136.795 93.2619C137.72 92.8647 137.681 92.8132 136.438 92.7807C135.672 92.7607 134.901 92.9773 134.725 93.2619C134.343 93.8798 135.358 93.8798 136.795 93.2619L136.795 93.2619ZM888.058 90.2296C888.058 89.9852 885.721 89.5193 882.864 89.1945C876.429 88.4628 875.273 88.448 875.931 89.1059C876.207 89.382 878.99 89.8153 882.116 90.0687C885.242 90.3221 887.858 90.562 887.929 90.6018C888 90.6417 888.058 90.4742 888.058 90.2297L888.058 90.2296ZM107.758 84.0693C107.905 83.8115 107.685 83.6005 107.271 83.6005C106.856 83.6005 106.517 83.8115 106.517 84.0693C106.517 84.3271 106.736 84.538 107.004 84.538C107.272 84.538 107.611 84.3271 107.758 84.0693L107.758 84.0693ZM177.005 83.201C176.631 82.8644 176.184 82.9058 176.012 83.2928C175.84 83.68 176.146 83.9554 176.692 83.9048C177.295 83.8486 177.417 83.5728 177.005 83.2009L177.005 83.201ZM96.6833 82.3929C96.6833 82.1082 96.2757 81.8789 95.7775 81.8832C95.0034 81.8898 94.9846 81.964 95.6481 82.3929C96.6249 83.0241 96.6833 83.0241 96.6833 82.3929L96.6833 82.3929ZM98.7536 81.6058C98.7536 81.4693 98.5207 81.3577 98.236 81.3577C97.9514 81.3577 97.7184 81.6258 97.7184 81.9535C97.7184 82.2813 97.9514 82.3929 98.236 82.2017C98.5207 82.0104 98.7536 81.7422 98.7536 81.6058L98.7536 81.6058ZM128.255 77.9823C128.967 77.7833 131.18 77.4262 133.172 77.1886C135.165 76.951 137.611 76.5104 138.607 76.2095C139.603 75.9086 140.418 75.6819 140.418 75.7057C140.418 75.9041 143.964 74.7966 145.724 74.0484C148.394 72.9132 148.562 72.0413 146.112 72.0413C144.847 72.0413 144.3 71.8072 144.3 71.2649C144.3 70.469 146.617 70.1543 150.462 70.428C152.137 70.5472 156.916 69.6551 158.011 69.0191C158.828 68.544 156.216 68.0083 152.809 67.9523C150.592 67.9156 148.704 68.2803 146.37 69.1946C144.555 69.9063 142.589 70.4922 142.002 70.4965C141.153 70.5031 141.089 70.6012 141.688 70.9799C142.101 71.2415 142.625 71.3406 142.852 71.2002C143.079 71.0599 143.265 71.1655 143.265 71.4344C143.265 71.8979 142.132 72.2251 138.179 72.9035C137.232 73.066 136.331 73.5267 136.178 73.9273C135.949 74.5228 135.75 74.5352 135.085 73.9955C134.405 73.4425 134.322 73.4678 134.577 74.1508C134.8 74.7475 134.583 74.9432 133.768 74.8799C133.156 74.8324 131.882 75.0048 130.937 75.263C129.746 75.5886 128.993 75.544 128.479 75.1175C128.062 74.7716 127.738 74.7259 127.738 75.0131C127.738 75.5841 123.794 77.2171 122.415 77.2171C121.927 77.2171 121.527 77.5355 121.527 77.9247C121.527 78.4516 122.221 78.5955 124.244 78.4882C125.739 78.4089 127.544 78.1813 128.255 77.9823L128.255 77.9823ZM149.547 59.2252C149.173 59.0632 148.622 59.2509 148.321 59.6425C147.937 60.1425 148.139 60.2301 149 59.9371C149.7 59.6988 149.934 59.3935 149.547 59.2252L149.547 59.2252ZM774.708 57.1867C774.708 56.9625 774 56.7271 773.136 56.6635C772.238 56.5973 771.698 56.7717 771.874 57.0712C772.235 57.6844 774.709 57.7853 774.708 57.1867L774.708 57.1867ZM151.029 53.9004L152.323 53.8606L151.115 53.3766C149.752 52.8299 147.406 53.2511 147.406 54.0426C147.406 54.3312 147.926 54.4249 148.57 54.2524C149.211 54.0807 150.317 53.9224 151.029 53.9004L151.029 53.9004ZM770.568 54.0499C770.568 53.7921 770.218 53.5811 769.791 53.5811C769.364 53.5811 769.015 53.7921 769.015 54.0499C769.015 54.3077 769.364 54.5186 769.791 54.5186C770.218 54.5186 770.568 54.3077 770.568 54.0499L770.568 54.0499ZM772.735 54.2167C772.362 53.8801 771.915 53.9215 771.743 54.3085C771.571 54.6957 771.877 54.9711 772.423 54.9205C773.026 54.8648 773.148 54.5884 772.735 54.2165L772.735 54.2167ZM159.925 53.1816C159.551 52.8449 159.105 52.8864 158.933 53.2733C158.761 53.6605 159.067 53.936 159.612 53.8853C160.215 53.8296 160.338 53.5534 159.925 53.1814L159.925 53.1816ZM101.859 52.3733C101.859 52.0887 101.626 51.8557 101.342 51.8557C101.057 51.8557 100.824 52.0887 100.824 52.3733C100.824 52.658 101.057 52.8909 101.342 52.8909C101.626 52.8909 101.859 52.658 101.859 52.3733L101.859 52.3733ZM115.316 51.0161C115.316 50.4362 114.344 50.9447 114.066 51.6702C113.793 52.3805 113.869 52.4126 114.528 51.8656C114.962 51.5059 115.316 51.1235 115.316 51.0161L115.316 51.0161ZM120.643 51.0794C120.643 50.6524 120.534 50.3031 120.401 50.3031C120.267 50.3031 119.998 50.6524 119.803 51.0794C119.608 51.5065 119.717 51.8558 120.045 51.8558C120.374 51.8558 120.643 51.5065 120.643 51.0794L120.643 51.0794ZM798.096 33.5137C797.723 33.177 797.276 33.2185 797.104 33.6054C796.932 33.9926 797.238 34.2681 797.784 34.2174C798.387 34.1617 798.509 33.8855 798.096 33.5135L798.096 33.5137ZM321.548 22.9072C321.712 22.6422 321.634 22.2942 321.374 22.1339C321.115 21.9734 320.769 22.1903 320.606 22.6157C320.284 23.4542 321.062 23.6948 321.548 22.9072L321.548 22.9072ZM75.8776 245.041C75.5797 244.685 75.5392 244.387 75.7876 244.379C76.0359 244.37 75.8036 244.11 75.2713 243.801C73.9057 243.007 75.1155 242.327 77.7919 242.384C79.1897 242.413 79.5259 242.537 78.827 242.764C77.8409 243.084 77.1057 244.402 77.9213 244.387C79.441 244.359 80.5385 243.683 80.3017 242.92C80.0705 242.175 80.1322 242.181 80.7827 242.971C81.6667 244.044 85.6054 244.241 85.9458 243.23C86.1187 242.716 86.3292 242.719 86.9682 243.247C87.9757 244.078 88.5703 246.098 87.7145 245.783C87.3811 245.66 87.1837 245.245 87.276 244.862C87.3932 244.374 87.1557 244.425 86.4858 245.031C85.7209 245.724 84.6107 245.877 80.9736 245.793C78.0813 245.727 76.2215 245.452 75.8776 245.041L75.8776 245.041ZM68.7727 243.901C68.0832 243.474 68.4148 242.324 69.2271 242.324C69.8175 242.324 70.3358 243.786 69.8516 244.085C69.6369 244.218 69.1514 244.135 68.7727 243.901L68.7727 243.901ZM79.7235 239.736C79.151 238.819 79.2108 238.692 80.246 238.622C80.8889 238.579 81.7643 238.505 82.1913 238.459C83.5719 238.308 83.8317 238.781 82.9211 239.787C81.7708 241.059 80.537 241.039 79.7235 239.736L79.7235 239.736ZM393.255 235.94C393.255 235.804 393.488 235.535 393.773 235.344C394.057 235.153 394.29 235.265 394.29 235.592C394.29 235.92 394.057 236.188 393.773 236.188C393.488 236.188 393.255 236.077 393.255 235.94L393.255 235.94ZM399.328 235.562C399.679 235.182 400.096 235.011 400.256 235.182C400.415 235.354 400.128 235.665 399.617 235.874C398.88 236.176 398.82 236.112 399.328 235.562L399.328 235.562ZM121.527 234.106C121.527 233.856 121.886 233.354 122.325 232.989C122.946 232.474 123.262 232.465 123.744 232.948C124.227 233.43 124.193 233.677 123.593 234.056C122.617 234.673 121.527 234.699 121.527 234.106L121.527 234.106ZM705.87 229.384C705.87 229.1 706.206 228.867 706.616 228.867C707.026 228.867 707.506 229.1 707.682 229.384C707.858 229.669 707.522 229.902 706.936 229.902C706.35 229.902 705.87 229.669 705.87 229.384L705.87 229.384ZM697.072 228.86C697.072 228.24 698.463 228.177 698.818 228.78C698.957 229.018 698.621 229.247 698.071 229.291C697.522 229.335 697.072 229.14 697.072 228.86L697.072 228.86ZM183.788 228C183.323 226.786 184.032 226.608 185.821 227.49C186.755 227.95 187.285 228.361 187.001 228.404C184.819 228.732 184.031 228.633 183.788 228L183.788 228ZM631.34 226.797C631.34 226.512 631.452 226.279 631.588 226.279C631.725 226.279 631.993 226.512 632.184 226.797C632.376 227.081 632.264 227.314 631.936 227.314C631.608 227.314 631.34 227.081 631.34 226.797L631.34 226.797ZM623.889 226.348C623.654 225.988 623.609 225.553 623.789 225.382C624.278 224.919 624.81 225.6 624.546 226.351C624.361 226.876 624.233 226.876 623.889 226.348L623.889 226.348ZM625.776 226.454C624.716 226.026 625.042 225.318 626.164 225.612C626.733 225.761 627.199 226.088 627.199 226.34C627.199 226.833 626.795 226.865 625.776 226.454L625.776 226.454ZM873.91 223.864C873.315 223.268 873.533 222.656 874.342 222.656C874.769 222.656 875.118 223.006 875.118 223.433C875.118 224.241 874.506 224.459 873.91 223.864L873.91 223.864ZM231.578 220.722C231.439 220.483 231.78 220.252 232.335 220.207C232.891 220.163 233.211 220.358 233.045 220.641C232.679 221.269 231.922 221.31 231.578 220.722L231.578 220.722ZM236.244 219.804C236.407 219.38 236.923 219.015 237.39 218.993C237.858 218.971 239.289 218.849 240.57 218.72C242.249 218.552 242.682 218.633 242.122 219.011C241.482 219.443 241.474 219.536 242.079 219.543C242.483 219.548 242.667 219.696 242.49 219.873C242.313 220.051 240.768 220.281 239.058 220.386C236.467 220.544 235.998 220.447 236.244 219.804L236.244 219.804ZM25.0212 218.551C24.6384 217.932 25.6121 217.318 26.3015 217.744C26.8803 218.102 26.5003 219.033 25.7754 219.033C25.5244 219.033 25.185 218.816 25.0212 218.551L25.0212 218.551ZM29.916 205.089C29.916 204.821 30.1837 204.46 30.5109 204.286C30.8521 204.104 30.9529 204.312 30.7474 204.773C30.3474 205.669 29.916 205.834 29.916 205.089L29.916 205.089ZM33.7116 204.822C33.7116 204.408 33.9874 204.191 34.3246 204.341C34.6617 204.49 34.7508 204.829 34.5225 205.094C33.9391 205.772 33.7116 205.695 33.7116 204.822L33.7116 204.822ZM935.675 137.256C935.247 136.98 935.131 136.754 935.416 136.754C935.701 136.754 936.284 136.98 936.711 137.256C937.139 137.532 937.255 137.757 936.97 137.757C936.685 137.757 936.103 137.532 935.675 137.256L935.675 137.256ZM85.2967 98.8626C85.2967 98.6289 85.7625 98.4377 86.3318 98.4377C86.9012 98.4377 87.367 98.6655 87.367 98.9439C87.367 99.2224 86.9012 99.4136 86.3318 99.3689C85.7625 99.3241 85.2967 99.0963 85.2967 98.8626L85.2967 98.8626ZM106.971 91.244L105.758 90.2612L108.855 89.8501C110.558 89.6239 113.174 89.4257 114.669 89.4095C116.163 89.3933 117.386 89.2217 117.386 89.028C117.386 88.625 120.469 89.4276 120.95 89.956C121.125 90.148 120.55 90.1687 119.672 90.0021C118.689 89.8155 117.495 90.0058 116.566 90.4964C115.736 90.9351 113.835 91.3165 112.34 91.3441C110.846 91.3716 109.623 91.5815 109.623 91.8105C109.623 92.5524 108.216 92.2518 106.971 91.244L106.971 91.244ZM100.447 91.5741C100.619 91.187 101.065 91.1456 101.439 91.4823C101.852 91.8542 101.729 92.1302 101.126 92.1861C100.58 92.2365 100.275 91.9614 100.447 91.5743L100.447 91.5741ZM91.0343 84.2475C90.9839 83.7018 91.2591 83.3961 91.6462 83.5681C92.0333 83.7401 92.0747 84.1865 91.7382 84.5602C91.3663 84.9731 91.0903 84.8505 91.0343 84.2475L91.0343 84.2475ZM105.166 79.8972C105.311 79.6633 104.953 79.0638 104.37 78.5651C103.328 77.6727 103.362 77.6339 106.513 76.1436C110.309 74.3488 110.658 74.3084 110.658 75.6643C110.658 76.3021 110.31 76.7025 109.752 76.7073C109.018 76.7139 108.985 76.8031 109.579 77.1788C109.982 77.4337 110.738 77.56 111.261 77.4594C111.783 77.3588 112.211 77.5138 112.211 77.8039C112.211 78.0941 111.454 78.29 110.529 78.2394C109.603 78.1888 108.381 78.1745 107.811 78.2078C106.949 78.258 106.906 78.3519 107.553 78.7699C108.216 79.1986 108.197 79.2727 107.423 79.2795C106.925 79.2842 106.517 79.5204 106.517 79.805C106.517 80.0897 106.154 80.3226 105.711 80.3226C105.267 80.3226 105.022 80.1312 105.166 79.8973L105.166 79.8972ZM111.784 75.7207C111.264 75.3991 111.284 75.1832 111.881 74.6877C112.719 73.9926 113.386 74.5998 112.81 75.5323C112.604 75.8648 112.152 75.9479 111.784 75.7207L111.784 75.7207ZM93.8368 53.926C93.6609 53.6413 93.8663 53.4084 94.2933 53.4084C94.7203 53.4084 95.2136 53.6413 95.3895 53.926C95.5654 54.2107 95.3601 54.4436 94.933 54.4436C94.506 54.4436 94.0127 54.2107 93.8368 53.926L93.8368 53.926ZM104.437 51.6088C105.183 50.7107 105.482 50.6172 105.482 51.2828C105.482 51.5371 105.1 51.8917 104.633 52.0711C103.922 52.3437 103.89 52.268 104.437 51.6089L104.437 51.6088ZM835.929 43.2562C836.535 42.6495 839.85 42.174 840.518 42.5978C840.903 42.8416 840.985 43.0678 840.7 43.1004C837.914 43.4197 835.693 43.4923 835.929 43.2562L835.929 43.2562ZM832.787 42.666C832.356 42.3619 832.678 42.1943 833.692 42.1943C834.557 42.1943 835.265 42.4105 835.265 42.6748C835.265 43.2886 833.659 43.2829 832.787 42.6654L832.787 42.666ZM819.478 41.9569C817.263 41.461 811.884 41.1052 801.834 40.79C798.392 40.6819 795.078 40.3272 794.469 40.0015C793.807 39.647 791.488 39.4667 788.693 39.5523C786.125 39.6311 784.024 39.6425 784.024 39.5775C784.024 39.3975 787.036 37.8808 787.393 37.8808C787.566 37.8808 787.564 38.1137 787.388 38.3983C787.202 38.7003 787.728 38.9159 788.652 38.9159C789.523 38.9159 790.235 38.683 790.235 38.3983C790.235 38.1137 790.482 37.8808 790.783 37.8808C791.085 37.8808 791.156 38.1719 790.943 38.5277C790.655 39.0061 790.749 39.0381 791.3 38.6506C791.711 38.3623 792.513 38.1531 793.082 38.1858C793.651 38.2183 795.354 38.2796 796.865 38.3217C798.376 38.3638 799.505 38.573 799.372 38.7865C799.24 39 800.566 39.1406 802.318 39.0989C804.07 39.0569 805.911 39.2402 806.41 39.5053C807.014 39.8272 807.315 39.7992 807.315 39.4213C807.315 39.1098 807.597 39.0289 807.941 39.2416C808.285 39.4543 810.556 39.6918 812.987 39.7695C815.419 39.8471 817.408 39.9383 817.408 39.972C817.408 40.0058 818.573 40.1088 819.996 40.2011C821.419 40.2933 822.642 40.4204 822.713 40.4835C822.835 40.5911 823.368 40.7479 824.266 40.94C824.678 41.0281 822.248 42.5313 821.808 42.4612C821.665 42.4383 820.617 42.2115 819.478 41.9566L819.478 41.9569ZM798.516 39.3851C798.516 39.1273 798.064 38.9163 797.512 38.9163C796.96 38.9163 796.382 39.1273 796.228 39.3851C796.074 39.6429 796.526 39.8538 797.232 39.8538C797.938 39.8538 798.516 39.6429 798.516 39.3851L798.516 39.3851ZM826.203 37.8727C826.025 37.5834 825.661 37.4807 825.396 37.6444C825.131 37.8082 824.914 37.7093 824.914 37.4247C824.914 36.4226 825.75 36.4067 826.368 37.3972C826.713 37.9481 826.889 38.3989 826.761 38.3989C826.633 38.3989 826.382 38.1621 826.203 37.8729L826.203 37.8727ZM815.122 35.854C814.576 35.3084 814.022 34.97 813.89 35.102C813.758 35.234 812.516 35.4201 811.13 35.5155C808.729 35.6809 805.751 34.6146 806.506 33.8596C807.111 33.2553 810.685 33.3968 811.465 34.0558C812.265 34.7306 813.721 34.753 814.374 34.1003C814.923 33.551 817.563 33.6715 817.928 34.2625C818.425 35.0669 817.686 36.8457 816.855 36.8457C816.447 36.8457 815.667 36.3993 815.122 35.8537L815.122 35.854ZM820.465 36.2485C820.245 35.8918 820.322 35.7909 820.658 35.9981C820.967 36.1891 821.366 36.1086 821.545 35.8193C822.027 35.0389 822.672 35.1822 822.672 36.0696C822.672 36.9813 821.002 37.1167 820.465 36.2485L820.465 36.2485ZM215.349 32.5703C215.521 32.1832 215.967 32.1418 216.341 32.4786C216.753 32.8503 216.631 33.1263 216.028 33.1822C215.482 33.2326 215.177 32.9575 215.349 32.5705L215.349 32.5703ZM319.759 17.6956C319.759 17.411 319.87 17.1781 320.007 17.1781C320.143 17.1781 320.412 17.411 320.603 17.6956C320.794 17.9803 320.682 18.2132 320.355 18.2132C320.027 18.2132 319.759 17.9803 319.759 17.6956L319.759 17.6956ZM331.828 17.748C330.992 17.1342 331.192 16.2521 332.112 16.4926C332.699 16.6461 333.075 16.435 333.13 15.922C333.177 15.4742 333.255 14.7584 333.302 14.3314C333.35 13.9044 333.815 13.526 334.337 13.4904C334.859 13.4547 335.461 13.3776 335.674 13.3188C335.888 13.2599 336.761 13.0241 337.615 12.7945C339.514 12.2841 340.546 11.5217 340.167 10.9085C340.011 10.6561 340.343 10.4496 340.906 10.4496C341.468 10.4496 342.046 10.7407 342.191 11.0966C342.373 11.5461 342.584 11.574 342.881 11.1883C343.641 10.2014 345.226 9.89336 346.061 10.5702C346.732 11.1134 346.795 11.0998 346.428 10.491C346.092 9.93278 346.203 9.83945 346.889 10.1028C347.386 10.2936 348.107 10.4496 348.492 10.4496C348.876 10.4496 349.331 10.8915 349.503 11.4316C349.703 12.0628 350.147 12.3266 350.745 12.1701C352.066 11.8247 351.93 10.5449 350.598 10.79C349.545 10.9837 349.544 10.9766 350.555 10.4965C351.124 10.2261 352.378 9.98837 353.342 9.96837C354.305 9.9482 356.518 9.70356 358.259 9.42432C362.771 8.70074 374.113 7.43268 379.28 7.07416C381.7 6.90636 384.728 6.67668 386.009 6.56381C388.707 6.32606 394.035 5.94758 401.018 5.49759C403.723 5.32333 407.449 5.05246 409.3 4.89572C413.747 4.51898 420.747 4.49089 421.721 4.84604C422.148 5.00168 423.488 5.30782 424.698 5.52646C425.907 5.74504 426.897 6.09529 426.897 6.30475C426.897 6.51417 426.321 7.26139 425.618 7.96511C424.576 9.00684 423.854 9.23521 421.734 9.19375C420.185 9.16308 419.2 9.35531 419.304 9.66693C419.4 9.95515 421.272 10.2102 423.463 10.2336C426.905 10.2702 429.198 10.9399 428.415 11.6798C428.065 12.0108 421.204 12.338 421.205 12.0236C421.206 11.8696 419.634 11.8166 417.711 11.9056C415.789 11.9947 412.88 11.856 411.247 11.5969C409.614 11.338 408.168 11.2367 408.033 11.3718C407.898 11.5068 406.788 11.6664 405.567 11.7265C404.346 11.7866 402.704 12.0156 401.917 12.2356C401.067 12.4735 400.221 12.4146 399.83 12.0901C399.468 11.7901 396.921 11.4908 394.168 11.4249C390.761 11.3436 389.27 11.1275 389.497 10.7481C389.68 10.4418 389.435 10.5117 388.952 10.9037C388.348 11.3939 387.416 11.5113 385.968 11.2797C384.585 11.0586 383.975 11.1249 384.19 11.4728C384.556 12.0657 384.488 12.0771 379.798 12.2031C377.947 12.2528 375.909 12.4766 375.269 12.7005C374.628 12.9243 374.104 12.9171 374.104 12.6845C374.104 12.4518 373.522 12.2614 372.81 12.2614C372.099 12.2614 371.516 12.4361 371.516 12.6496C371.516 12.8631 371.153 13.0378 370.71 13.0378C370.266 13.0378 370.024 12.8411 370.173 12.6005C370.532 12.0193 365.215 12.8729 364.829 13.4584C364.123 14.5303 354.436 15.6165 354.436 14.6239C354.436 14.3209 354.19 14.0729 353.888 14.0729C353.587 14.0729 353.474 14.2898 353.638 14.5548C354.106 15.3123 352.915 15.7787 352.145 15.1395C351.628 14.7106 351.386 14.7369 351.192 15.2423C351.024 15.6787 350.172 15.8781 348.802 15.8015C347.631 15.7361 346.673 15.9 346.673 16.1659C346.673 17.0218 344.014 16.4597 343.497 15.4946C343.223 14.9814 342.773 14.7006 342.498 14.8706C342.223 15.0405 342.117 15.372 342.262 15.6072C342.407 15.8423 342.186 16.1655 341.769 16.3252C341.353 16.485 340.873 16.3892 340.702 16.1124C340.512 15.8056 339.849 15.911 339.003 16.3824C337.411 17.2696 332.459 18.2122 331.828 17.7483L331.828 17.748ZM324.417 15.3971C324.417 14.488 324.767 14.3542 325.266 15.072C325.451 15.3371 325.335 15.7002 325.009 15.8789C324.683 16.0577 324.417 15.8414 324.417 15.3971L324.417 15.3971ZM326.368 14.6133C326.668 14.2218 327.22 14.034 327.593 14.196C327.981 14.3643 327.746 14.6696 327.046 14.9079C326.186 15.2009 325.983 15.1132 326.368 14.6133L326.368 14.6133ZM504.663 13.1898C504.022 13.0664 503.498 12.7877 503.498 12.5705C503.498 11.9371 505.747 12.2814 505.97 12.9488C506.081 13.2823 506.094 13.5233 505.999 13.4846C505.904 13.4456 505.303 13.3132 504.662 13.1898L504.663 13.1898ZM493.923 12.0047C495.345 11.3902 496.163 11.3902 495.216 12.0047C494.79 12.2822 494.091 12.4963 493.664 12.4805C493.152 12.4617 493.24 12.2996 493.923 12.0047L493.923 12.0047ZM497.058 12.1228C496.899 11.7957 497.234 11.6826 497.804 11.8714C499.012 12.2718 499.165 12.7174 498.094 12.7174C497.684 12.7174 497.218 12.4498 497.058 12.1228L497.058 12.1228ZM430.428 10.8792C429.613 10.0604 429.983 10.0036 436.38 9.96503C440.131 9.94214 443.72 9.82358 444.354 9.70096C444.989 9.57833 445.629 9.67349 445.776 9.9123C445.924 10.1512 446.758 10.2973 447.629 10.2369C449.984 10.0739 449.995 10.8274 447.641 11.052C446.527 11.1581 445.727 11.0657 445.863 10.8473C446.287 10.1598 445.49 10.4148 444.679 11.2259C443.799 12.1064 441.613 12.2649 441.13 11.4833C440.917 11.1387 440.468 11.1467 439.794 11.5071C438.648 12.1204 437.57 11.7036 438.096 10.8512C438.327 10.4785 438.199 10.443 437.717 10.7458C437.317 10.9968 435.709 11.3259 434.143 11.4772C431.903 11.6937 431.112 11.5664 430.428 10.8792L430.428 10.8792ZM471.926 11.4846C471.926 11.2 472.038 10.9671 472.174 10.9671C472.311 10.9671 472.579 11.2 472.771 11.4846C472.962 11.7693 472.85 12.0022 472.522 12.0022C472.195 12.0022 471.926 11.7693 471.926 11.4846L471.926 11.4846ZM451.223 10.4495C450.756 10.148 450.693 9.94456 451.063 9.93982C451.402 9.93512 451.824 10.1648 452 10.4495C452.397 11.0921 452.218 11.0921 451.223 10.4495L451.223 10.4495ZM653.381 10.3789C653.648 9.94561 651.676 9.43589 651.277 9.83526C650.721 10.3917 648.42 10.4969 648.42 9.96578C648.42 9.63728 646.947 9.55814 644.409 9.75026C641.297 9.98584 639.991 9.86441 638.586 9.20887C637.59 8.74418 637.167 8.47075 637.647 8.60127C638.127 8.73179 638.592 8.63606 638.682 8.38887C638.771 8.14159 639.194 7.86353 639.621 7.77098C640.048 7.67854 640.569 7.36989 640.778 7.08519C640.987 6.80052 641.162 7.07769 641.166 7.70148C641.173 8.77333 641.252 8.79465 642.597 8.09178C643.874 7.42476 644.094 7.44124 644.737 8.25186C645.419 9.11131 645.438 9.11122 645.142 8.25186C644.901 7.55285 645.115 7.34611 646.081 7.34611C646.77 7.34611 647.571 7.75372 647.861 8.25186C648.154 8.75454 648.395 8.86969 648.404 8.51066C648.421 7.83289 649.973 7.57677 649.973 8.25186C649.973 8.46535 651.733 8.62656 653.885 8.61014C656.038 8.59363 657.914 8.76836 658.057 8.99833C658.199 9.22827 658.814 9.41641 659.423 9.41641C660.31 9.41641 660.402 9.54581 659.884 10.0634C659.237 10.7112 652.988 11.0163 653.38 10.381L653.381 10.3789ZM661.877 10.3633C661.877 10.1261 662.052 9.91629 662.266 9.89707C662.479 9.87784 663.399 9.76463 664.31 9.64553C666.357 9.37759 667.086 10.2655 665.117 10.6283C663.169 10.9869 661.877 10.8813 661.877 10.3633L661.877 10.3633ZM624.612 8.63803C624.612 8.35338 623.738 8.12047 622.67 8.12047C621.603 8.12047 620.558 8.35338 620.349 8.63803C620.095 8.98309 619.966 8.98309 619.96 8.63803C619.948 7.9896 616.847 7.83622 616.847 8.48413C616.847 8.74474 616.636 8.82714 616.377 8.66724C615.884 8.3626 611.331 7.87348 606.496 7.60566C604.93 7.51894 603.649 7.39568 603.649 7.33174C603.649 6.98484 596.839 6.97949 596.403 7.3261C595.626 7.94477 590.451 8.37641 590.451 7.82255C590.451 7.55942 590.102 7.34419 589.675 7.34419C589.248 7.34419 588.898 7.56889 588.898 7.84363C588.898 8.15546 585.253 8.25104 579.194 8.09815C573.856 7.96348 568.927 7.85571 568.241 7.85868C567.554 7.86338 566.215 7.64934 565.265 7.38699C564.226 7.10017 563.537 7.09837 563.537 7.38229C563.537 7.85265 561.727 7.77649 561.236 7.28542C561.094 7.1438 558.739 7.1107 556.002 7.21192C552.703 7.33392 550.779 7.19129 550.294 6.78895C549.724 6.31616 549.561 6.33905 549.555 6.89232C549.549 7.34113 549.407 7.40361 549.166 7.06197C548.938 6.73748 545.993 6.49558 541.799 6.4569C537.956 6.42165 526.31 6.25914 515.92 6.09635C505.53 5.93362 492.196 5.76936 486.289 5.73147C480.382 5.69398 475.549 5.51684 475.548 5.33871C475.547 5.1605 474.266 5.01474 472.701 5.01474C471.136 5.01474 469.856 5.18942 469.856 5.40293C469.856 5.61643 469.609 5.79111 469.308 5.79111C469.006 5.79111 468.903 5.55819 469.079 5.27352C469.255 4.98888 469.036 4.75596 468.592 4.75596C468.149 4.75619 467.785 4.52329 467.785 4.23865C467.785 3.95396 467.539 3.72106 467.237 3.72106C466.936 3.72106 466.833 3.95397 467.009 4.23865C467.198 4.54433 466.628 4.75299 465.616 4.74827C464.32 4.7417 464.092 4.61836 464.68 4.23865C465.253 3.86809 465.277 3.73483 464.772 3.72897C464.246 3.7224 464.267 3.54256 464.865 2.94468C465.292 2.51768 466.124 2.16831 466.713 2.16831C467.303 2.16831 467.785 1.9197 467.785 1.61583C467.785 1.28812 468.233 1.2054 468.885 1.41254C469.626 1.64746 469.869 1.57422 469.631 1.18865C469.436 0.87344 469.415 0.615576 469.583 0.615576C469.751 0.615576 470.066 1.09458 470.283 1.68006L470.677 2.74459L472.041 1.67095C472.977 0.935052 473.519 0.780371 473.766 1.17931C474.021 1.59193 474.252 1.55697 474.56 1.05906C474.912 0.488375 478.463 0.360415 493.516 0.376122C503.703 0.387094 516.23 0.544994 521.354 0.727914C526.478 0.91079 534.98 1.19548 540.246 1.36054C559.262 1.95645 564.161 2.17303 564.587 2.43637C565.539 3.02483 569.71 3.54681 570.341 3.15652C570.73 2.91601 571.184 3.00188 571.416 3.36018C571.716 3.82257 571.947 3.78279 572.328 3.20344C572.608 2.77643 572.841 2.65998 572.846 2.94466C572.852 3.27132 576.052 3.43915 581.523 3.39969C590.169 3.33725 604.942 4.17276 604.943 4.72428C604.944 4.88416 606.749 4.98876 608.955 4.95682C612.735 4.90197 621.443 5.61028 622.987 6.09827C623.556 6.27831 623.567 6.4718 623.043 7.10334C622.515 7.73978 622.528 7.84306 623.114 7.65798C623.51 7.53293 624.485 7.28785 625.279 7.11339C626.169 6.91792 626.609 6.55369 626.424 6.16439C626.26 5.8169 626.396 5.89719 626.728 6.34268C627.216 6.99789 627.881 7.07823 630.206 6.76283C631.84 6.54104 633.471 6.5823 633.987 6.85844C634.486 7.1256 635.55 7.3758 636.352 7.41457C637.694 7.47945 637.711 7.50363 636.561 7.72035C635.595 7.90246 635.478 8.06033 636.043 8.4183C636.843 8.92482 636.171 8.98827 628.881 9.09382C626.338 9.13047 624.611 8.94627 624.611 8.63803L624.612 8.63803ZM474.185 3.98283C474.022 3.55743 473.68 3.3383 473.425 3.49582C472.694 3.94744 472.885 4.75618 473.722 4.75618C474.184 4.75618 474.365 4.45259 474.185 3.98283L474.185 3.98283ZM443.999 5.75209C444.531 4.75677 444.5 4.64375 443.767 4.92487C443.036 5.20529 443.003 5.09196 443.53 4.10822L444.141 2.96597L444.656 4.11991C445.247 5.4438 446.316 5.63629 446.753 4.49742C446.916 4.07041 446.864 3.72105 446.635 3.72105C446.407 3.72105 446.22 3.36885 446.22 2.93832C446.22 2.30194 446.688 2.21761 448.722 2.48742C450.431 2.7141 451.224 2.63414 451.224 2.23505C451.224 1.9105 452.042 1.65076 453.066 1.65076C454.273 1.65076 454.786 1.84683 454.556 2.21997C454.306 2.62464 454.518 2.6212 455.29 2.20807C456.192 1.72517 456.325 1.76019 456.073 2.41521C455.907 2.84877 455.563 3.20352 455.309 3.20352C455.055 3.20352 454.847 3.43644 454.847 3.72107C454.847 4.79997 455.782 4.17641 456.399 2.68592C457.119 0.947649 457.138 0.938093 458.435 1.63248C459.09 1.98277 459.292 2.52969 459.113 3.46546C458.973 4.19903 459.062 4.73137 459.311 4.64832C459.56 4.56536 459.88 4.72501 460.022 5.00328C460.175 5.30247 458.945 5.54494 457.011 5.5969C454.021 5.67715 453.692 5.57814 453.175 4.44411C452.618 3.22133 450.706 2.68511 450.706 3.75161C450.706 4.05313 450.936 4.15746 451.218 3.98357C451.506 3.80508 451.6 4.00325 451.434 4.43788C451.261 4.88815 450.798 5.07794 450.319 4.89437C449.787 4.69025 449.629 4.78694 449.866 5.17072C450.282 5.84442 448.562 6.34185 446.565 6.12521C445.854 6.04805 444.846 6.19188 444.327 6.44488C443.48 6.85709 443.446 6.78517 443.999 5.75214L443.999 5.75209ZM458.156 3.84479C458.303 3.58697 458.094 3.37604 457.693 3.37604C457.291 3.37604 457.082 3.58698 457.229 3.84479C457.375 4.10259 457.584 4.31354 457.693 4.31354C457.801 4.31354 458.01 4.10258 458.156 3.84479L458.156 3.84479ZM437.026 5.85019C436.87 5.59788 437.207 5.27012 437.774 5.12176C438.461 4.94209 438.7 4.57675 438.489 4.02779C438.315 3.57442 438.392 3.20349 438.66 3.20349C439.37 3.20349 439.255 4.8942 438.493 5.65583C437.721 6.42834 437.409 6.46963 437.026 5.85019L437.026 5.85019ZM440.201 4.41116C440.348 4.03159 440.536 3.72104 440.619 3.72104C440.701 3.72104 440.89 4.03159 441.037 4.41116C441.185 4.79073 440.996 5.10128 440.619 5.10128C440.241 5.10128 440.053 4.79073 440.201 4.41116L440.201 4.41116ZM442.197 2.96116C442.749 2.54322 443.712 2.19385 444.335 2.18479C445.57 2.16651 446.356 2.95173 445.583 3.42977C445.318 3.59352 445.012 3.45995 444.903 3.13249C444.754 2.68536 444.43 2.68449 443.599 3.1278C442.008 3.97928 441.007 3.85931 442.197 2.9597L442.197 2.96116ZM435.319 3.06837C435.491 2.68126 435.937 2.63989 436.311 2.97658C436.724 3.34843 436.601 3.62446 435.998 3.68029C435.453 3.73071 435.147 3.45558 435.319 3.06847L435.319 3.06837ZM462.61 2.68587C461.947 2.25711 461.966 2.18297 462.74 2.17619C463.238 2.1715 463.645 2.40118 463.645 2.68587C463.645 3.31712 463.587 3.31712 462.61 2.68587L462.61 2.68587ZM459.831 1.89756C459.584 1.25435 459.717 1.21005 460.552 1.65696C461.752 2.29906 461.865 2.68587 460.854 2.68587C460.458 2.68587 459.997 2.33111 459.831 1.89756L459.831 1.89756Z" id="Shape" fill="#1CE1AC" fill-rule="evenodd" stroke="none" />
    </g>
  </g>
</svg>