<svg width="65" height="65" xmlns="http://www.w3.org/2000/svg">
 <defs>
  <linearGradient y2="0.69611" x2="0.22641" y1="0.31099" x1="0.77489" id="A">
   <stop stop-color="#fc5b3f" offset="0"/>
   <stop stop-color="#f8573d" offset="0.284"/>
   <stop stop-color="#eb4b38" offset="0.579"/>
   <stop stop-color="#d73730" offset="0.877"/>
   <stop stop-color="#cc2c2c" offset="1"/>
  </linearGradient>
  <linearGradient y2="0.36638" x2="0.80598" y1="0.63069" x1="0.15902" id="B">
   <stop stop-color="#fc5b3f" offset="0"/>
   <stop stop-color="#f8573d" offset="0.284"/>
   <stop stop-color="#eb4b38" offset="0.579"/>
   <stop stop-color="#d73730" offset="0.877"/>
   <stop stop-color="#cc2c2c" offset="1"/>
  </linearGradient>
 </defs>
 <g>
  <title>Layer 1</title>
  <path id="svg_1" fill="url(#A)" d="m32.95,20.85l-1,1.1l2.5,6.4l3.9,3.5l2.8,-3.4l-1.7,-5.2l-4.4,-4.5c-0.8,0.7 -1.5,1.3 -2.1,2.1z"/>
  <path id="svg_2" fill="#fc5b3f" d="m41.25,28.35c1.1,-1.2 2.5,-1.9 4,-1.9c2.2,0 5.7,1.5 5.7,5.6s-3.5,5.6 -5.7,5.6c-1.5,0 -2.9,-0.6 -4,-1.9l-2.8,-4l-6.5,-9.9l-1.3,11.4l1.3,8.9l1,1.1c2.4,2.7 5.5,4.5 8.9,5.2c3.2,0.7 6.5,0.4 9.6,-0.8s5.7,-3.2 7.6,-5.8c2,-2.8 3.1,-6.2 3.1,-9.8s-1.1,-7 -3.1,-9.8c-1.9,-2.6 -4.5,-4.6 -7.6,-5.8s-6.4,-1.5 -9.6,-0.8c-2.5,0.5 -4.8,1.6 -6.8,3.2l6.2,9.5z"/>
  <path id="svg_3" fill="url(#B)" d="m30.95,43.35l1,-1.1l-2.5,-6.4l-3.9,-3.5l-2.8,3.4l1.7,5.1l4.4,4.5c0.7,-0.6 1.5,-1.3 2.1,-2z"/>
  <path id="svg_4" fill="#fc5b3f" d="m22.65,35.75c-1.1,1.2 -2.5,1.9 -4,1.9c-2.2,0 -5.7,-1.5 -5.7,-5.6s3.5,-5.6 5.7,-5.6c1.5,0 2.9,0.6 4,1.9l2.8,4l6.5,9.9l0,-20.4l-1,-1.1c-2.4,-2.7 -5.5,-4.5 -8.9,-5.2c-3.2,-0.7 -6.5,-0.4 -9.6,0.8s-5.7,3.2 -7.6,5.9c-2,2.8 -3.1,6.2 -3.1,9.8s1.1,7 3.1,9.8c1.9,2.6 4.5,4.6 7.6,5.8s6.4,1.5 9.6,0.8c2.5,-0.5 4.8,-1.6 6.8,-3.2l-6.2,-9.5z"/>
 </g>
</svg>